<?xml version="1.0" encoding="UTF-8" standalone="no"?>
<!-- Generator: Adobe Illustrator 16.0.0, SVG Export Plug-In . SVG Version: 6.00 Build 0)  -->

<svg
   xmlns:dc="http://purl.org/dc/elements/1.1/"
   xmlns:cc="http://creativecommons.org/ns#"
   xmlns:rdf="http://www.w3.org/1999/02/22-rdf-syntax-ns#"
   xmlns:svg="http://www.w3.org/2000/svg"
   xmlns="http://www.w3.org/2000/svg"
   xmlns:sodipodi="http://sodipodi.sourceforge.net/DTD/sodipodi-0.dtd"
   xmlns:inkscape="http://www.inkscape.org/namespaces/inkscape"
   version="1.1"
   id="Capa_1"
   x="0px"
   y="0px"
   width="40.31px"
   height="25.961px"
   viewBox="0 0 40.31 25.961"
   style="enable-background:new 0 0 40.31 25.961;"
   xml:space="preserve"
   inkscape:version="0.48.4 r9939"
   sodipodi:docname="weather.svg"><metadata
     id="metadata55"><rdf:RDF><cc:Work
         rdf:about=""><dc:format>image/svg+xml</dc:format><dc:type
           rdf:resource="http://purl.org/dc/dcmitype/StillImage" /><dc:title /></cc:Work></rdf:RDF></metadata><defs
     id="defs53" /><sodipodi:namedview
     pagecolor="#ffffff"
     bordercolor="#666666"
     borderopacity="1"
     objecttolerance="10"
     gridtolerance="10"
     guidetolerance="10"
     inkscape:pageopacity="0"
     inkscape:pageshadow="2"
     inkscape:window-width="640"
     inkscape:window-height="480"
     id="namedview51"
     showgrid="false"
     inkscape:zoom="9.0905588"
     inkscape:cx="20.155001"
     inkscape:cy="12.760492"
     inkscape:window-x="245"
     inkscape:window-y="115"
     inkscape:window-maximized="0"
     inkscape:current-layer="Capa_1" /><g
     id="g3032"
     inkscape:export-filename="/home/mardojai/Webs Admin/EasyDesk/0.4/icons/normal/weather.png"
     inkscape:export-xdpi="75.911682"
     inkscape:export-ydpi="75.911682"
     style="fill:#000000"><path
       id="path3"
       d="M3.831,12.676l-3.178,2.713l4.174-0.164c-0.234-0.387-0.437-0.797-0.606-1.23  C4.051,13.559,3.922,13.121,3.831,12.676z"
       style="fill:#000000" /><path
       id="path5"
       d="M18.265,8.494c0.05,0.131,0.089,0.26,0.132,0.387c0.196-0.586,0.451-1.145,0.754-1.676l-1.492,0.059  C17.891,7.652,18.094,8.061,18.265,8.494z"
       style="fill:#000000" /><path
       id="path7"
       d="M16.944,6.297l1.396-3.938l-3.531,2.23c0.395,0.219,0.776,0.471,1.14,0.764  C16.312,5.643,16.646,5.961,16.944,6.297z"
       style="fill:#000000" /><path
       id="path9"
       d="M13.705,4.109L12.948,0l-1.945,3.699c0.45-0.01,0.909,0.02,1.37,0.09S13.279,3.967,13.705,4.109z"
       style="fill:#000000" /><path
       id="path11"
       d="M8.493,4.223c0.433-0.17,0.874-0.301,1.315-0.391L7.097,0.654L7.263,4.83  C7.648,4.598,8.06,4.393,8.493,4.223z"
       style="fill:#000000" /><path
       id="path13"
       d="M5.351,6.539c0.292-0.367,0.606-0.697,0.944-0.998L2.357,4.146l2.231,3.531  C4.806,7.283,5.061,6.9,5.351,6.539z"
       style="fill:#000000" /><path
       id="path15"
       d="M3.786,10.113c0.07-0.461,0.179-0.906,0.32-1.334L0,9.539l3.697,1.943  C3.688,11.033,3.717,10.574,3.786,10.113z"
       style="fill:#000000" /><path
       id="path17"
       d="M8.897,15.273c0.959,0,0.917,0.223,0.917,0c0-2.943,2.387-5.33,5.329-5.33  c0.736,0,1.434,0.158,2.072,0.428c-0.372-2.562-2.376-4.688-5.068-5.094c-3.296-0.5-6.375,1.768-6.875,5.062  c-0.302,2.006,0.424,3.932,1.779,5.242C7.632,15.385,8.251,15.273,8.897,15.273z"
       style="fill:#000000" /><path
       id="path19"
       d="M34.27,13.029c-0.121-4.342-3.68-7.824-8.053-7.824c-4.127,0-7.531,3.105-7.999,7.107  c-0.703-0.441-1.532-0.695-2.42-0.695c-2.517,0-4.556,2.039-4.556,4.555c0,0.191,0.036,0-0.784,0c-2.704,0-4.894,2.193-4.894,4.895  c0,2.463,1.82,4.5,4.187,4.842c0.186,0.035,0.376,0.053,0.571,0.053h23.092c0.082,0,0.108-0.008,0.111-0.016  c0.104,0.006,0.203,0.016,0.309,0.016c3.576,0,6.476-2.9,6.476-6.477C40.31,16.055,37.645,13.256,34.27,13.029z"
       style="fill:#000000" /></g><g
     id="g21" /><g
     id="g23" /><g
     id="g25" /><g
     id="g27" /><g
     id="g29" /><g
     id="g31" /><g
     id="g33" /><g
     id="g35" /><g
     id="g37" /><g
     id="g39" /><g
     id="g41" /><g
     id="g43" /><g
     id="g45" /><g
     id="g47" /><g
     id="g49" /></svg>