<?xml version="1.0" encoding="UTF-8" standalone="no"?>
<!-- Generator: Adobe Illustrator 16.0.0, SVG Export Plug-In . SVG Version: 6.00 Build 0)  -->

<svg
   xmlns:dc="http://purl.org/dc/elements/1.1/"
   xmlns:cc="http://creativecommons.org/ns#"
   xmlns:rdf="http://www.w3.org/1999/02/22-rdf-syntax-ns#"
   xmlns:svg="http://www.w3.org/2000/svg"
   xmlns="http://www.w3.org/2000/svg"
   xmlns:sodipodi="http://sodipodi.sourceforge.net/DTD/sodipodi-0.dtd"
   xmlns:inkscape="http://www.inkscape.org/namespaces/inkscape"
   version="1.1"
   id="Layer_1"
   x="0px"
   y="0px"
   width="100px"
   height="100px"
   viewBox="0 0 100 100"
   enable-background="new 0 0 100 100"
   xml:space="preserve"
   inkscape:version="0.48.5 r10040"
   sodipodi:docname="instagram.svg"><metadata
   id="metadata9"><rdf:RDF><cc:Work
       rdf:about=""><dc:format>image/svg+xml</dc:format><dc:type
         rdf:resource="http://purl.org/dc/dcmitype/StillImage" /></cc:Work></rdf:RDF></metadata><defs
   id="defs7" /><sodipodi:namedview
   pagecolor="#ffffff"
   bordercolor="#666666"
   borderopacity="1"
   objecttolerance="10"
   gridtolerance="10"
   guidetolerance="10"
   inkscape:pageopacity="0"
   inkscape:pageshadow="2"
   inkscape:window-width="640"
   inkscape:window-height="480"
   id="namedview5"
   showgrid="false"
   inkscape:zoom="2.36"
   inkscape:cx="50"
   inkscape:cy="50"
   inkscape:window-x="0"
   inkscape:window-y="0"
   inkscape:window-maximized="0"
   inkscape:current-layer="Layer_1" />
<path
   fill-rule="evenodd"
   clip-rule="evenodd"
   d="M13.804,1.303h72.393c6.875,0,12.5,5.09,12.5,12.5v72.394  c0,7.411-5.625,12.5-12.5,12.5H13.804c-6.877,0-12.501-5.09-12.501-12.5V13.803C1.303,6.393,6.927,1.303,13.804,1.303L13.804,1.303z   M72.251,12.124c-2.412,0-4.384,1.972-4.384,4.385v10.495c0,2.412,1.972,4.385,4.384,4.385h11.008c2.411,0,4.384-1.973,4.384-4.385  V16.509c0-2.413-1.973-4.385-4.384-4.385H72.251L72.251,12.124z M87.69,42.49h-8.573c0.811,2.648,1.25,5.453,1.25,8.356  c0,16.2-13.555,29.332-30.274,29.332c-16.718,0-30.272-13.132-30.272-29.332c0-2.904,0.438-5.708,1.25-8.356h-8.945v41.141  c0,2.129,1.742,3.872,3.872,3.872h67.822c2.129,0,3.872-1.742,3.872-3.872V42.49L87.69,42.49z M50.092,30.836  c-10.802,0-19.56,8.485-19.56,18.953c0,10.468,8.758,18.953,19.56,18.953c10.803,0,19.562-8.485,19.562-18.953  C69.654,39.321,60.896,30.836,50.092,30.836z"
   id="path3"
   style="fill:#ffffff" />
</svg>