<?xml version="1.0" encoding="UTF-8" standalone="no"?>
<!-- Generator: Adobe Illustrator 18.0.0, SVG Export Plug-In . SVG Version: 6.00 Build 0)  -->

<svg
   xmlns:dc="http://purl.org/dc/elements/1.1/"
   xmlns:cc="http://creativecommons.org/ns#"
   xmlns:rdf="http://www.w3.org/1999/02/22-rdf-syntax-ns#"
   xmlns:svg="http://www.w3.org/2000/svg"
   xmlns="http://www.w3.org/2000/svg"
   xmlns:sodipodi="http://sodipodi.sourceforge.net/DTD/sodipodi-0.dtd"
   xmlns:inkscape="http://www.inkscape.org/namespaces/inkscape"
   version="1.1"
   id="Capa_1"
   x="0px"
   y="0px"
   viewBox="0 0 32 32"
   enable-background="new 0 0 32 32"
   xml:space="preserve"
   inkscape:version="0.48.5 r10040"
   width="100%"
   height="100%"
   sodipodi:docname="openmailbox.svg"><metadata
   id="metadata21"><rdf:RDF><cc:Work
       rdf:about=""><dc:format>image/svg+xml</dc:format><dc:type
         rdf:resource="http://purl.org/dc/dcmitype/StillImage" /></cc:Work></rdf:RDF></metadata><defs
   id="defs19" /><sodipodi:namedview
   pagecolor="#ffffff"
   bordercolor="#666666"
   borderopacity="1"
   objecttolerance="10"
   gridtolerance="10"
   guidetolerance="10"
   inkscape:pageopacity="0"
   inkscape:pageshadow="2"
   inkscape:window-width="727"
   inkscape:window-height="480"
   id="namedview17"
   showgrid="false"
   inkscape:zoom="7.375"
   inkscape:cx="16"
   inkscape:cy="16"
   inkscape:window-x="0"
   inkscape:window-y="0"
   inkscape:window-maximized="0"
   inkscape:current-layer="Capa_1" />
<title
   id="title3">icon 2 mail envelope open</title>
<desc
   id="desc5">Created with Sketch.</desc>
<g
   id="g7"
   style="fill:#ffffff"
   transform="matrix(1.1406152,0,0,1.1406152,-2.3201507,-2.3201507)">
	<rect
   x="10"
   y="13"
   width="13"
   height="1"
   id="rect9"
   style="fill:#ffffff" />
	<rect
   x="10"
   y="10"
   width="13"
   height="1"
   id="rect11"
   style="fill:#ffffff" />
	<path
   d="M 26,11.4 V 8 C 26,6.9 25.1,6 24,6 H 19.9 L 16.5,3 13.1,6 H 9 C 7.9,6 7,6.9 7,8 v 3.4 L 4,14 v 14 c 0,1.1 0.9,2 2,2 h 21 c 1.1,0 2,-0.9 2,-2 V 14 l -3,-2.6 z m 0,1.3 1.5,1.3 -1.5,1.3 V 12.7 z M 16.5,4.3 18.4,6 h -3.9 l 2,-1.7 z M 8,8 C 8,7.4 8.4,7 9,7 h 15 c 0.5,0 1,0.5 1,1 v 8.1 L 21.8,19 H 11.2 L 8,16.2 V 8 z m 10.5,14 0,0 -3.4,0 1.7,0 -2.3,0 -2.2,-2 h 8.3 l -2.1,2 0,0 z M 7,12.7 v 2.7 L 5.5,14 7,12.7 z m -1.7,16 C 5.1,28.5 5,28.3 5,28 V 21.5 15 l 8,7 -7.7,6.7 z m 1.2,0.3 7,-6 h 6 l 7,6 H 6.5 z M 28,21.5 V 28 c 0,0.3 -0.1,0.5 -0.3,0.7 L 20,22 28,15 v 6.5 z"
   id="path13"
   style="fill:#ffffff"
   inkscape:connector-curvature="0" />
	<rect
   x="10"
   y="16"
   width="13"
   height="1"
   id="rect15"
   style="fill:#ffffff" />
</g>
<path
   style="fill:#ffffff;stroke:none;stroke-width:1px;stroke-linecap:butt;stroke-linejoin:miter;stroke-opacity:1;fill-opacity:1"
   d="m 3.6610169,31.186441 25.6271191,0.271186 1.220339,-1.627119 -0.542373,-16.135593 -10.711865,9.355932 -6.101695,0.135594 -0.135593,-1.084746 -10.3050846,-8.271187 0,15.864407 z"
   id="path2992"
   inkscape:connector-curvature="0" /></svg>