<?xml version="1.0" encoding="UTF-8" standalone="no"?>
<!-- Generator: Adobe Illustrator 15.0.0, SVG Export Plug-In . SVG Version: 6.00 Build 0)  -->

<svg
   xmlns:dc="http://purl.org/dc/elements/1.1/"
   xmlns:cc="http://creativecommons.org/ns#"
   xmlns:rdf="http://www.w3.org/1999/02/22-rdf-syntax-ns#"
   xmlns:svg="http://www.w3.org/2000/svg"
   xmlns="http://www.w3.org/2000/svg"
   xmlns:sodipodi="http://sodipodi.sourceforge.net/DTD/sodipodi-0.dtd"
   xmlns:inkscape="http://www.inkscape.org/namespaces/inkscape"
   version="1.1"
   id="Icons"
   x="0px"
   y="0px"
   width="100px"
   height="100px"
   viewBox="0 0 100 100"
   style="enable-background:new 0 0 100 100;"
   xml:space="preserve"
   inkscape:version="0.48.5 r10040"
   sodipodi:docname="linkedin.svg"><metadata
   id="metadata8"><rdf:RDF><cc:Work
       rdf:about=""><dc:format>image/svg+xml</dc:format><dc:type
         rdf:resource="http://purl.org/dc/dcmitype/StillImage" /></cc:Work></rdf:RDF></metadata><defs
   id="defs6" /><sodipodi:namedview
   pagecolor="#ffffff"
   bordercolor="#666666"
   borderopacity="1"
   objecttolerance="10"
   gridtolerance="10"
   guidetolerance="10"
   inkscape:pageopacity="0"
   inkscape:pageshadow="2"
   inkscape:window-width="640"
   inkscape:window-height="480"
   id="namedview4"
   showgrid="false"
   inkscape:zoom="2.36"
   inkscape:cx="50"
   inkscape:cy="50"
   inkscape:window-x="0"
   inkscape:window-y="0"
   inkscape:window-maximized="0"
   inkscape:current-layer="Icons" />
<path
   id="LinkedIn"
   d="M95,59.727V93H75.71V61.955c0-7.799-2.79-13.121-9.773-13.121c-5.33,0-8.502,3.587-9.897,7.056  c-0.509,1.241-0.64,2.967-0.64,4.704V93H36.104c0,0,0.26-52.58,0-58.028h19.295v8.225c-0.039,0.062-0.09,0.128-0.127,0.188h0.127  v-0.188c2.563-3.948,7.141-9.588,17.388-9.588C85.483,33.609,95,41.903,95,59.727z M15.919,7C9.318,7,5,11.33,5,17.024  c0,5.57,4.193,10.031,10.663,10.031h0.129c6.729,0,10.914-4.46,10.914-10.031C26.579,11.33,22.521,7,15.919,7z M6.146,93h19.289  V34.972H6.146V93z"
   style="fill:#ffffff" />
</svg>