<?xml version="1.0" encoding="UTF-8" standalone="no"?>
<!-- Generator: Adobe Illustrator 17.1.0, SVG Export Plug-In . SVG Version: 6.00 Build 0)  -->

<svg
   xmlns:dc="http://purl.org/dc/elements/1.1/"
   xmlns:cc="http://creativecommons.org/ns#"
   xmlns:rdf="http://www.w3.org/1999/02/22-rdf-syntax-ns#"
   xmlns:svg="http://www.w3.org/2000/svg"
   xmlns="http://www.w3.org/2000/svg"
   xmlns:sodipodi="http://sodipodi.sourceforge.net/DTD/sodipodi-0.dtd"
   xmlns:inkscape="http://www.inkscape.org/namespaces/inkscape"
   version="1.1"
   id="Capa_1"
   x="0px"
   y="0px"
   viewBox="0 0 200 200"
   style="enable-background:new 0 0 200 200;"
   xml:space="preserve"
   inkscape:version="0.48.5 r10040"
   width="100%"
   height="100%"
   sodipodi:docname="msn.svg"><metadata
   id="metadata19"><rdf:RDF><cc:Work
       rdf:about=""><dc:format>image/svg+xml</dc:format><dc:type
         rdf:resource="http://purl.org/dc/dcmitype/StillImage" /></cc:Work></rdf:RDF></metadata><defs
   id="defs17" /><sodipodi:namedview
   pagecolor="#ffffff"
   bordercolor="#666666"
   borderopacity="1"
   objecttolerance="10"
   gridtolerance="10"
   guidetolerance="10"
   inkscape:pageopacity="0"
   inkscape:pageshadow="2"
   inkscape:window-width="640"
   inkscape:window-height="480"
   id="namedview15"
   showgrid="false"
   inkscape:zoom="1.18"
   inkscape:cx="100"
   inkscape:cy="100"
   inkscape:window-x="0"
   inkscape:window-y="0"
   inkscape:window-maximized="0"
   inkscape:current-layer="Capa_1" />
<g
   id="g3"
   style="fill:#ffffff">
	<path
   d="M80.534,117.459c-6.127,4.624-13.905,7.137-22.361,7.137c-2.415,0-4.845-0.207-7.271-0.589   c-0.137,0.133-0.276,0.26-0.412,0.396c-10.448,10.448-12.368,25.467-4.289,33.546c8.079,8.079,23.098,6.159,33.546-4.289   s12.368-25.467,4.289-33.546C82.98,119.058,81.802,118.177,80.534,117.459z"
   id="path5"
   style="fill:#ffffff" />
	<path
   d="M22.516,103.571c10.055,10.055,22.56,15.52,34.077,15.981c0.528,0.021,1.057,0.045,1.581,0.045   c5.965,0,11.614-1.38,16.46-4.193c2.086-1.211,4.027-2.683,5.775-4.432c13.943-13.943,10.629-39.863-7.401-57.893   C62.492,42.562,49.293,37.052,37.351,37.053c-8.533,0-16.425,2.814-22.236,8.625C1.172,59.62,4.486,85.54,22.516,103.571z"
   id="path7"
   style="fill:#ffffff" />
	<path
   d="M153.798,157.95c8.079-8.079,6.159-23.098-4.289-33.546c-0.135-0.135-0.275-0.263-0.412-0.396   c-2.426,0.382-4.856,0.589-7.271,0.589c-8.456,0-16.233-2.513-22.361-7.137c-1.268,0.718-2.446,1.599-3.502,2.656   c-8.079,8.079-6.159,23.098,4.289,33.546S145.719,166.029,153.798,157.95z"
   id="path9"
   style="fill:#ffffff" />
	<path
   d="M184.885,45.677c-5.811-5.811-13.703-8.625-22.236-8.625c-11.942,0-25.141,5.51-35.657,16.026   c-18.031,18.031-21.344,43.95-7.401,57.893c1.749,1.749,3.689,3.221,5.775,4.432c4.846,2.812,10.495,4.193,16.46,4.193   c0.524,0,1.052-0.024,1.581-0.045c11.517-0.461,24.021-5.926,34.077-15.981C195.514,85.54,198.828,59.62,184.885,45.677z"
   id="path11"
   style="fill:#ffffff" />
	<path
   d="M113.905,49.105c2.356-2.21-1.187-5.739-3.536-3.535c-3.369,3.161-6.084,6.897-8.022,11.077   c-0.735-0.262-1.523-0.412-2.347-0.412s-1.613,0.15-2.347,0.412c-1.937-4.18-4.653-7.916-8.022-11.077   c-2.349-2.204-5.891,1.325-3.536,3.535c3.336,3.13,5.857,6.787,7.658,10.983C93.275,61.035,93,62.102,93,63.235v15.839v18.938V153   c0,3.866,3.134,7,7,7s7-3.134,7-7V98.012V79.074V63.235c0-1.133-0.275-2.2-0.753-3.147   C108.047,55.892,110.569,52.235,113.905,49.105z"
   id="path13"
   style="fill:#ffffff" />
</g>
</svg>