<?xml version="1.0" encoding="UTF-8" standalone="no"?>
<!-- Generator: Adobe Illustrator 17.0.0, SVG Export Plug-In . SVG Version: 6.00 Build 0)  -->

<svg
   xmlns:dc="http://purl.org/dc/elements/1.1/"
   xmlns:cc="http://creativecommons.org/ns#"
   xmlns:rdf="http://www.w3.org/1999/02/22-rdf-syntax-ns#"
   xmlns:svg="http://www.w3.org/2000/svg"
   xmlns="http://www.w3.org/2000/svg"
   xmlns:sodipodi="http://sodipodi.sourceforge.net/DTD/sodipodi-0.dtd"
   xmlns:inkscape="http://www.inkscape.org/namespaces/inkscape"
   version="1.1"
   id="Capa_1"
   x="0px"
   y="0px"
   width="200px"
   height="200px"
   viewBox="0 0 200 200"
   enable-background="new 0 0 200 200"
   xml:space="preserve"
   inkscape:version="0.48.5 r10040"
   sodipodi:docname="pinterest.svg"><metadata
   id="metadata9"><rdf:RDF><cc:Work
       rdf:about=""><dc:format>image/svg+xml</dc:format><dc:type
         rdf:resource="http://purl.org/dc/dcmitype/StillImage" /></cc:Work></rdf:RDF></metadata><defs
   id="defs7" /><sodipodi:namedview
   pagecolor="#ffffff"
   bordercolor="#666666"
   borderopacity="1"
   objecttolerance="10"
   gridtolerance="10"
   guidetolerance="10"
   inkscape:pageopacity="0"
   inkscape:pageshadow="2"
   inkscape:window-width="640"
   inkscape:window-height="480"
   id="namedview5"
   showgrid="false"
   inkscape:zoom="1.18"
   inkscape:cx="100"
   inkscape:cy="100"
   inkscape:window-x="0"
   inkscape:window-y="0"
   inkscape:window-maximized="0"
   inkscape:current-layer="Capa_1" />
<path
   d="M154.186,23.651c-25.52-27.768-68.587-25.911-97.222-4.49c-24.41,18.26-41.657,58.806-21.144,86.398  c4.193,5.64,10.337,9.08,17.139,10.477c1.816,0.373,3.275-0.513,3.911-2.221c1.376-3.69,2.844-7.155,3.161-11.106  c0.121-1.507-1.089-2.355-2.346-2.42c-18.604-20.433-5.967-45.861,12.163-61.586c16.029-13.901,45.463-26.927,64.303-10.91  c13.001,11.053,13.992,31.707,13.369,47.312c-0.782,19.571-7.62,40.2-27.939,46.425c-6.691,2.05-14.431,1.236-18.872-4.655  c-5.017-6.655-3.408-14.677-1.507-22.016c2.927-11.3,9.864-27.297,3.294-38.475c-7.954-13.534-23.975-1.228-28.602,7.886  c-2.818,5.551-7.894,23.332-0.403,27.891c-7.96,20.133-13.33,42.257-16.962,63.492c-1.631,9.536-3.133,20.03-1.327,29.65  c0.096,0.509,2.155,7.744,4.215,10.572c-0.321,1.824,2.37,2.483,3.442,1.048c7.329-9.81,14.836-19.206,18.879-30.913  c2.148-6.219,2.946-13.034,4.232-19.469c0.901-4.508,2.746-9.635,3.213-14.44c0.029-0.005,0.056-0.016,0.086-0.021  c6.327,4.861,14.84,8.975,22.358,10.436c11.822,2.297,25.757-2.104,35.413-8.778c1.475-1.02,2.952-2.248,4.375-3.62  c4.463-2.973,8.532-6.83,12.01-11.693C183.43,90.452,176.637,48.081,154.186,23.651z M53.467,104.913  c0.16,0.171,0.328,0.312,0.498,0.435c-0.106,0.237-0.224,0.468-0.335,0.703c-0.24-0.314-0.492-0.618-0.737-0.928  c0.054-0.29,0.049-0.584-0.017-0.88C53.077,104.465,53.259,104.691,53.467,104.913z M41.046,49.498  c-1.871,3.248-3.458,6.59-4.765,10.04c1.038-3.714,2.436-7.308,4.171-10.768c0.252,0.106,0.526,0.173,0.812,0.21  C41.188,49.151,41.119,49.326,41.046,49.498z M154.792,35.635c-0.297-0.385-0.653-0.688-1.042-0.923  c-0.087-0.125-0.197-0.214-0.295-0.324c-0.125-0.421-0.274-0.817-0.408-1.228c1.132,1.455,2.221,2.95,3.232,4.505  C155.799,36.982,155.308,36.304,154.792,35.635z"
   id="path3"
   style="fill:#ffffff" />
</svg>