<?xml version="1.0" encoding="UTF-8" standalone="no"?>
<!-- Generator: Adobe Illustrator 18.0.0, SVG Export Plug-In . SVG Version: 6.00 Build 0)  -->

<svg
   xmlns:dc="http://purl.org/dc/elements/1.1/"
   xmlns:cc="http://creativecommons.org/ns#"
   xmlns:rdf="http://www.w3.org/1999/02/22-rdf-syntax-ns#"
   xmlns:svg="http://www.w3.org/2000/svg"
   xmlns="http://www.w3.org/2000/svg"
   xmlns:sodipodi="http://sodipodi.sourceforge.net/DTD/sodipodi-0.dtd"
   xmlns:inkscape="http://www.inkscape.org/namespaces/inkscape"
   version="1.1"
   id="Capa_1"
   x="0px"
   y="0px"
   viewBox="0 0 56.223 37.599"
   style="enable-background:new 0 0 56.223 37.599;"
   xml:space="preserve"
   inkscape:version="0.48.5 r10040"
   width="100%"
   height="100%"
   sodipodi:docname="yandexmail.svg"><metadata
   id="metadata39"><rdf:RDF><cc:Work
       rdf:about=""><dc:format>image/svg+xml</dc:format><dc:type
         rdf:resource="http://purl.org/dc/dcmitype/StillImage" /></cc:Work></rdf:RDF></metadata><defs
   id="defs37" /><sodipodi:namedview
   pagecolor="#ffffff"
   bordercolor="#666666"
   borderopacity="1"
   objecttolerance="10"
   gridtolerance="10"
   guidetolerance="10"
   inkscape:pageopacity="0"
   inkscape:pageshadow="2"
   inkscape:window-width="640"
   inkscape:window-height="480"
   id="namedview35"
   showgrid="false"
   showguides="true"
   inkscape:guide-bbox="true"
   inkscape:zoom="6.1184924"
   inkscape:cx="28.1115"
   inkscape:cy="18.7995"
   inkscape:window-x="0"
   inkscape:window-y="0"
   inkscape:window-maximized="0"
   inkscape:current-layer="Capa_1" />
<path
   d="M28.182,22.549h0.012c0.424,0,0.843-0.123,1.182-0.347l0.092-0.059c0.02-0.013,0.041-0.025,0.062-0.039l1.071-0.886  L56.164,0.123C56.111,0.05,56.021,0,55.925,0H0.297C0.228,0,0.164,0.025,0.113,0.067l26.745,22.044  C27.195,22.39,27.676,22.549,28.182,22.549z M0,2.989v31.269l19.159-15.477L0,2.989z M37.084,18.886l19.139,15.38V3.093  L37.084,18.886z M30.999,23.906c-0.763,0.626-1.761,0.971-2.809,0.971c-1.052,0-2.049-0.343-2.81-0.966l-4.388-3.619L0,37.247v0.054  c0,0.161,0.138,0.298,0.301,0.298h55.625c0.16,0,0.297-0.137,0.297-0.299V37.25L35.249,20.398L30.999,23.906z"
   id="path3"
   style="fill:#ffffff" />
<g
   id="g5">
</g>
<g
   id="g7">
</g>
<g
   id="g9">
</g>
<g
   id="g11">
</g>
<g
   id="g13">
</g>
<g
   id="g15">
</g>
<g
   id="g17">
</g>
<g
   id="g19">
</g>
<g
   id="g21">
</g>
<g
   id="g23">
</g>
<g
   id="g25">
</g>
<g
   id="g27">
</g>
<g
   id="g29">
</g>
<g
   id="g31">
</g>
<g
   id="g33">
</g>
</svg>