<?xml version="1.0" encoding="UTF-8" standalone="no"?>
<!-- Generator: Adobe Illustrator 15.0.0, SVG Export Plug-In . SVG Version: 6.00 Build 0)  -->

<svg
   xmlns:dc="http://purl.org/dc/elements/1.1/"
   xmlns:cc="http://creativecommons.org/ns#"
   xmlns:rdf="http://www.w3.org/1999/02/22-rdf-syntax-ns#"
   xmlns:svg="http://www.w3.org/2000/svg"
   xmlns="http://www.w3.org/2000/svg"
   xmlns:sodipodi="http://sodipodi.sourceforge.net/DTD/sodipodi-0.dtd"
   xmlns:inkscape="http://www.inkscape.org/namespaces/inkscape"
   version="1.1"
   id="Icons"
   x="0px"
   y="0px"
   width="100px"
   height="100px"
   viewBox="0 0 100 100"
   style="enable-background:new 0 0 100 100;"
   xml:space="preserve"
   inkscape:version="0.48.5 r10040"
   sodipodi:docname="yandex.svg"><metadata
   id="metadata8"><rdf:RDF><cc:Work
       rdf:about=""><dc:format>image/svg+xml</dc:format><dc:type
         rdf:resource="http://purl.org/dc/dcmitype/StillImage" /></cc:Work></rdf:RDF></metadata><defs
   id="defs6" /><sodipodi:namedview
   pagecolor="#ffffff"
   bordercolor="#666666"
   borderopacity="1"
   objecttolerance="10"
   gridtolerance="10"
   guidetolerance="10"
   inkscape:pageopacity="0"
   inkscape:pageshadow="2"
   inkscape:window-width="643"
   inkscape:window-height="480"
   id="namedview4"
   showgrid="false"
   inkscape:zoom="2.36"
   inkscape:cx="102.33051"
   inkscape:cy="50"
   inkscape:window-x="0"
   inkscape:window-y="0"
   inkscape:window-maximized="0"
   inkscape:current-layer="Icons" />

<path
   d="m 29.539786,92.797778 c 3.645014,0.270342 5.5191,-0.711398 7.204064,-2.94522 6.430346,-8.636468 13.256151,-17.144881 19.927212,-25.710209 3.077628,-3.926962 3.455889,-4.040788 10.711529,-2.888309 0,10.358072 0,20.801515 0,31.230724 4.38433,0 8.184082,0 12.310509,0 0,-1.792741 0,-3.30092 0,-4.837563 0,-25.411421 0,-50.837073 0,-76.262724 0,-4.2257519 -0.01721,-4.2115232 -6.378771,-4.2257519 -5.862966,0 -11.691545,0.014232 -17.537323,0 C 47.52414,7.1302725 40.681147,9.2644872 35.058886,13.376415 15.750633,27.519166 20.822703,54.381857 46.509726,60.11579 37.878611,70.843793 29.299078,81.543337 20.3069,92.755093 c 3.662206,0 6.481933,-0.156507 9.232886,0.04265 z M 43.552457,48.747522 c -7.307225,-5.933126 -9.387631,-12.79108 -6.68826,-20.317756 0.223517,-0.597581 0.584579,-1.166706 0.876868,-1.735831 5.433131,-10.343843 12.602811,-13.217923 29.297651,-11.496321 0,12.364237 0,24.557736 0,37.09271 -8.373213,-0.07114 -17.107487,1.650462 -23.486259,-3.542802 z"
   id="path4"
   inkscape:connector-curvature="0"
   sodipodi:nodetypes="ccccccsscccccccccccc"
   style="fill:#ffffff" /></svg>