<?xml version="1.0" encoding="iso-8859-1"?>
<!-- Generator: Adobe Illustrator 16.0.0, SVG Export Plug-In . SVG Version: 6.00 Build 0)  -->
<!DOCTYPE svg PUBLIC "-//W3C//DTD SVG 1.1//EN" "http://www.w3.org/Graphics/SVG/1.1/DTD/svg11.dtd">
<svg version="1.1" id="Layer_1" xmlns="http://www.w3.org/2000/svg" xmlns:xlink="http://www.w3.org/1999/xlink" x="0px" y="0px"
	 width="22.725px" height="31.459px" viewBox="0 0 22.725 31.459" style="enable-background:new 0 0 22.725 31.459;"
	 xml:space="preserve">
<polygon points="8.813,4.483 8.813,15.898 7.321,14.944 5.83,16.906 5.83,4.785 4.578,4.912 4.213,4.662 21.423,2.794 21.402,2.601 
	3.968,4.493 3.666,4.285 21.074,2.382 21.053,2.189 3.42,4.118 3.085,3.888 20.765,1.932 20.744,1.739 2.841,3.719 2.468,3.462 
	20.376,1.471 20.354,1.279 2.224,3.294 1.819,3.016 2.398,2.957 20.822,0.953 20.146,0 0,2.135 0,2.427 0,3.205 0,28.863 
	3.649,31.439 3.649,31.459 22.72,29.524 22.725,3.072 "/>
<g>
</g>
<g>
</g>
<g>
</g>
<g>
</g>
<g>
</g>
<g>
</g>
<g>
</g>
<g>
</g>
<g>
</g>
<g>
</g>
<g>
</g>
<g>
</g>
<g>
</g>
<g>
</g>
<g>
</g>
</svg>
