<?xml version="1.0" encoding="UTF-8" standalone="no"?>
<!-- Created with Inkscape (http://www.inkscape.org/) -->

<svg
   xmlns:dc="http://purl.org/dc/elements/1.1/"
   xmlns:cc="http://creativecommons.org/ns#"
   xmlns:rdf="http://www.w3.org/1999/02/22-rdf-syntax-ns#"
   xmlns:svg="http://www.w3.org/2000/svg"
   xmlns="http://www.w3.org/2000/svg"
   xmlns:sodipodi="http://sodipodi.sourceforge.net/DTD/sodipodi-0.dtd"
   xmlns:inkscape="http://www.inkscape.org/namespaces/inkscape"
   width="100"
   height="100"
   id="svg2"
   version="1.1"
   inkscape:version="0.48.5 r10040"
   sodipodi:docname="search.svg">
  <defs
     id="defs4" />
  <sodipodi:namedview
     id="base"
     pagecolor="#ffffff"
     bordercolor="#666666"
     borderopacity="1.0"
     inkscape:pageopacity="0.0"
     inkscape:pageshadow="2"
     inkscape:zoom="1.979899"
     inkscape:cx="45.102582"
     inkscape:cy="6.3901258"
     inkscape:document-units="px"
     inkscape:current-layer="layer1"
     showgrid="false"
     inkscape:window-width="1360"
     inkscape:window-height="705"
     inkscape:window-x="-8"
     inkscape:window-y="-8"
     inkscape:window-maximized="1" />
  <metadata
     id="metadata7">
    <rdf:RDF>
      <cc:Work
         rdf:about="">
        <dc:format>image/svg+xml</dc:format>
        <dc:type
           rdf:resource="http://purl.org/dc/dcmitype/StillImage" />
        <dc:title />
      </cc:Work>
    </rdf:RDF>
  </metadata>
  <g
     inkscape:label="Capa 1"
     inkscape:groupmode="layer"
     id="layer1"
     transform="translate(0,-952.36218)">
    <path
       id="magnifier-5-icon"
       d="M 79.980047,1021.5923 62.813485,1004.4259 C 69.946495,989.63279 59.163775,972.16055 42.516942,972.16055 30.101135,972.16055 20,982.26169 20,994.67759 c 0,16.37971 16.963215,27.17771 31.712909,20.55281 l 17.314634,17.3142 c 4.924636,0.4109 11.377522,-5.8567 10.952504,-10.9523 z m -37.463105,-11.8812 c -8.288887,0 -15.032647,-6.7439 -15.032647,-15.03351 0,-8.2891 6.74376,-15.03302 15.032647,-15.03302 8.289479,0 15.033539,6.74392 15.033539,15.03302 0,8.28961 -6.74406,15.03351 -15.033539,15.03351 z M 0,952.36218 l 100,0 0,100.00002 -100,0 z"
       style="fill:#ffffff" />
  </g>
</svg>
